<svg viewBox="0 0 100 100" fill="none" xmlns="http://www.w3.org/2000/svg">
  <!-- Document Background -->
  <rect x="25" y="15" width="50" height="70" rx="4" fill="#E2E8F0" stroke="#1E293B" strokeWidth="2" />
  <path d="M25 25C25 19.4772 29.4772 15 35 15H65C70.5228 15 75 19.4772 75 25V30H25V25Z" fill="#CBD5E1" stroke="#1E293B" strokeWidth="2" />
  
  <!-- Bar Chart -->
  <rect x="32" y="65" width="8" height="12" fill="#1E293B" />
  <rect x="44" y="55" width="8" height="22" fill="#1E293B" />
  <rect x="56" y="45" width="8" height="32" fill="#1E293B" />
  <rect x="28" y="77" width="44" height="4" fill="#3B82F6" />
  
  <!-- Dollar Circle & Arrow -->
  <circle cx="25" cy="45" r="14" fill="#4ADE80" stroke="#1E293B" strokeWidth="2" />
  <text x="25" y="49" fontSize="12" fontWeight="bold" fill="#1E293B" textAnchor="middle" style="font-family: sans-serif;">$</text>
  <path d="M42 45L55 45M55 45L50 40M55 45L50 50" stroke="#1E293B" strokeWidth="2" strokeLinecap="round" strokeLinejoin="round" />
  
  <!-- User Circle -->
  <circle cx="80" cy="35" r="12" fill="#FACC15" stroke="#1E293B" strokeWidth="2" />
  <circle cx="80" cy="32" r="4" fill="#991B1B" />
  <path d="M74 41C74 38 76.6863 36 80 36C83.3137 36 86 38 86 41" fill="#991B1B" />
</svg>
